<?xml version="1.0" encoding="UTF-8" standalone="no"?>
<svg width="32px" height="32px" viewBox="0 0 32 32" version="1.1" xmlns="http://www.w3.org/2000/svg" xmlns:xlink="http://www.w3.org/1999/xlink">
    <!-- Generator: Sketch 49.2 (51160) - http://www.bohemiancoding.com/sketch -->
    <title>details</title>
    <desc>Created with Sketch.</desc>
    <defs></defs>
    <g id="Page-1" stroke="none" stroke-width="1" fill="none" fill-rule="evenodd">
        <g id="details" fill="#000000" fill-rule="nonzero">
            <path d="M18,10.06 C18,11.0430669 17.1045695,11.84 16,11.84 C14.8954305,11.84 14,11.0430669 14,10.06 C14,9.07693315 14.8954305,8.28 16,8.28 C17.1045695,8.28 18,9.07693315 18,10.06 Z M17.3328125,14.4719777 L17.3328125,13.44 L14.6671875,13.44 L14.6671875,24.28 L17.3328125,24.28 L17.3328125,14.4719777 Z" id="Shape"></path>
            <path d="M16,0 C7.147,0 0,7.147 0,16 C0,24.853 7.147,32 16,32 C24.853,32 32,24.853 32,16 C32,7.147 24.853,0 16,0 Z M16,29 C8.84028533,29 3,23.1597147 3,16 C3,8.84028533 8.84028533,3 16,3 C23.1597147,3 29,8.84028533 29,16 C29,23.1597147 23.1597147,29 16,29 Z" id="Shape"></path>
        </g>
    </g>
</svg>