<?xml version="1.0" encoding="UTF-8" standalone="no"?>
<svg width="32px" height="32px" viewBox="0 0 32 32" version="1.1" xmlns="http://www.w3.org/2000/svg" xmlns:xlink="http://www.w3.org/1999/xlink">
    <!-- Generator: Sketch 49.2 (51160) - http://www.bohemiancoding.com/sketch -->
    <title>figures_bold</title>
    <desc>Created with Sketch.</desc>
    <defs></defs>
    <g id="Page-1" stroke="none" stroke-width="1" fill="none" fill-rule="evenodd">
        <g id="figures_bold" fill="#000000" fill-rule="nonzero">
            <path d="M20.15262,8.29 C18.4971911,8.29 17.152,9.81425392 17.152,11.6879137 C17.152,13.5615736 18.4984321,15.087 20.15262,15.087 C21.8055671,15.087 23.1519991,13.5627461 23.1519991,11.6867412 C23.1532401,9.81542643 21.806808,8.29 20.15262,8.29 Z M20.219,12.847 C19.63,12.847 19.152,12.274 19.152,11.567 C19.152,10.863 19.63,10.29 20.219,10.29 C20.807,10.29 21.285,10.863 21.285,11.568 C21.286,12.274 20.807,12.848 20.219,12.848 L20.219,12.847 Z" id="Shape"></path>
            <path d="M28.737,0.006 L3.252,0.006 C1.467,0.006 0.02,1.74 0.02,3.88 L0.02,28.12 C0.02,30.26 1.467,31.994 3.252,31.994 L28.737,31.994 C30.527,31.994 31.977,30.26 31.977,28.12 L31.977,3.88 C31.977,1.74 30.527,0.006 28.737,0.006 Z M2.53375431,21.8599711 L8.70603406,14.492998 C9.13849849,13.9762103 9.83412214,13.9542194 10.2886699,14.4462672 L18.2239323,23.0199946 C19.1716736,24.0407418 20.6181291,23.9967599 21.5207836,22.9210352 L23.6002934,20.4397214 C24.0106747,19.9495062 24.6658123,19.9018591 25.1222002,20.3315992 L29.4100392,24.36969 L29.4100392,27.3696242 C29.4100392,28.6505979 28.5386694,29.6887546 27.4621089,29.6887546 L4.48076443,29.6887546 C3.40420401,29.6887546 2.53283417,28.6505979 2.53283417,27.3705405 L2.53283417,21.8590549 L2.53375431,21.8590549 L2.53375431,21.8599711 Z M25.8941953,17.1665095 C24.9427736,16.3320315 23.5782102,16.4214398 22.7215626,17.3725744 L20.6429728,19.6793101 C20.2105083,20.1595608 19.5139646,20.1791455 19.060337,19.7235886 L11.1241544,11.7560265 C10.1782534,10.8065948 8.73087775,10.8466158 7.82822324,11.8471379 L2.53467443,17.7182868 L2.53467443,4.55397025 C2.53467443,3.3635618 3.40696442,2.39795152 4.48352484,2.39795152 L27.4639493,2.39795152 C28.5405097,2.39795152 29.4127997,3.3635618 29.4127997,4.55311874 L29.4127997,20.2438601 L25.8941953,17.165658 L25.8941953,17.1665095 Z" id="Shape"></path>
        </g>
    </g>
</svg>