<?xml version="1.0" encoding="UTF-8" standalone="no"?>
<svg width="256px" height="32px" viewBox="0 0 256 32" version="1.1" xmlns="http://www.w3.org/2000/svg" xmlns:xlink="http://www.w3.org/1999/xlink">
    <!-- Generator: Sketch 49.2 (51160) - http://www.bohemiancoding.com/sketch -->
    <title>icon_sprite</title>
    <desc>Created with Sketch.</desc>
    <defs></defs>
    <g id="Page-1" stroke="none" stroke-width="1" fill="none" fill-rule="evenodd">
        <g id="icon_sprite" fill="#000000" fill-rule="nonzero">
            <g id="figures">
                <path d="M19.57,9.00848485 C18.236,9.00848485 17.152,10.2690909 17.152,11.8186667 C17.152,13.3682424 18.237,14.6298182 19.57,14.6298182 C20.902,14.6298182 21.987,13.3692121 21.987,11.817697 C21.988,10.2700606 20.903,9.00848485 19.57,9.00848485 Z M19.57,13.0589091 C18.981,13.0589091 18.503,12.5032727 18.503,11.817697 C18.503,11.1350303 18.981,10.5793939 19.57,10.5793939 C20.158,10.5793939 20.636,11.1350303 20.636,11.8186667 C20.637,12.5032727 20.158,13.0598788 19.57,13.0598788 L19.57,13.0589091 Z" id="Shape"></path>
                <path d="M28.737,0.00581818182 L3.252,0.00581818182 C1.467,0.00581818182 0.02,1.68727273 0.02,3.76242424 L0.02,27.2678788 C0.02,29.3430303 1.467,31.0244848 3.252,31.0244848 L28.737,31.0244848 C30.527,31.0244848 31.977,29.3430303 31.977,27.2678788 L31.977,3.76242424 C31.977,1.68727273 30.527,0.00581818182 28.737,0.00581818182 Z M1.361,21.174303 L8.069,13.3779394 C8.539,12.8310303 9.295,12.8077576 9.789,13.3284848 L18.413,22.4019394 C19.443,23.4821818 21.015,23.4356364 21.996,22.2972121 L24.256,19.6712727 C24.702,19.1524848 25.414,19.1020606 25.91,19.5568485 L30.57,23.830303 L30.57,27.0050909 C30.57,28.3607273 29.623,29.4593939 28.453,29.4593939 L3.477,29.4593939 C2.307,29.4593939 1.36,28.3607273 1.36,27.0060606 L1.36,21.1733333 L1.361,21.1733333 L1.361,21.174303 Z M26.749,18.3253333 C25.715,17.3750303 24.232,17.4768485 23.301,18.56 L21.042,21.1869091 C20.572,21.7338182 19.815,21.7561212 19.322,21.2373333 L10.697,12.1638788 C9.669,11.0826667 8.096,11.1282424 7.115,12.2676364 L1.362,18.953697 L1.362,3.96218182 C1.362,2.60654545 2.31,1.50690909 3.48,1.50690909 L28.455,1.50690909 C29.625,1.50690909 30.573,2.60654545 30.573,3.96121212 L30.573,21.8298182 L26.749,18.3243636 L26.749,18.3253333 Z" id="Shape"></path>
            </g>
            <g id="figures_bold" transform="translate(32.000000, 0.000000)">
                <path d="M20.15262,8.03878788 C18.4971911,8.03878788 17.152,9.51685229 17.152,11.3337345 C17.152,13.1506168 18.4984321,14.6298182 20.15262,14.6298182 C21.8055671,14.6298182 23.1519991,13.1517538 23.1519991,11.3325975 C23.1532401,9.51798927 21.806808,8.03878788 20.15262,8.03878788 Z M20.219,12.457697 C19.63,12.457697 19.152,11.9020606 19.152,11.2164848 C19.152,10.5338182 19.63,9.97818182 20.219,9.97818182 C20.807,9.97818182 21.285,10.5338182 21.285,11.2174545 C21.286,11.9020606 20.807,12.4586667 20.219,12.4586667 L20.219,12.457697 Z" id="Shape"></path>
                <path d="M28.737,0.00581818182 L3.252,0.00581818182 C1.467,0.00581818182 0.02,1.68727273 0.02,3.76242424 L0.02,27.2678788 C0.02,29.3430303 1.467,31.0244848 3.252,31.0244848 L28.737,31.0244848 C30.527,31.0244848 31.977,29.3430303 31.977,27.2678788 L31.977,3.76242424 C31.977,1.68727273 30.527,0.00581818182 28.737,0.00581818182 Z M2.53375431,21.1975477 L8.70603406,14.0538162 C9.13849849,13.5526888 9.83412214,13.5313643 10.2886699,14.0085015 L18.2239323,22.322419 C19.1716736,23.3122345 20.6181291,23.2695854 21.5207836,22.2264584 L23.6002934,19.8203359 C24.0106747,19.3449757 24.6658123,19.2987725 25.1222002,19.7154901 L29.4100392,23.6312145 L29.4100392,26.5402416 C29.4100392,27.782398 28.5386694,28.7890954 27.4621089,28.7890954 L4.48076443,28.7890954 C3.40420401,28.7890954 2.53283417,27.782398 2.53283417,26.5411302 L2.53283417,21.1966593 L2.53375431,21.1966593 L2.53375431,21.1975477 Z M25.8941953,16.6463122 C24.9427736,15.8371215 23.5782102,15.9238204 22.7215626,16.8461328 L20.6429728,19.0829674 C20.2105083,19.548665 19.5139646,19.5676562 19.060337,19.1259041 L11.1241544,11.3997833 C10.1782534,10.4791222 8.73087775,10.5179305 7.82822324,11.4881337 L2.53467443,17.181369 L2.53467443,4.41597115 C2.53467443,3.26163568 3.40696442,2.32528632 4.48352484,2.32528632 L27.4639493,2.32528632 C28.5405097,2.32528632 29.4127997,3.26163568 29.4127997,4.41514544 L29.4127997,19.6304098 L25.8941953,16.6454865 L25.8941953,16.6463122 Z" id="Shape"></path>
            </g>
            <g id="link-symbol" transform="translate(96.000000, 0.000000)">
                <path d="M29.4506201,14.0296266 L23.4562096,19.8404912 C20.1477729,23.0505693 14.7806463,23.0505693 11.4716507,19.8404912 C10.9504279,19.3364859 10.5426725,18.7685907 10.1845939,18.1829446 L12.9698515,15.4822919 C13.1022533,15.3528183 13.2657467,15.2786301 13.4219738,15.1912304 C13.6145328,15.8291809 13.9506725,16.43312 14.4680524,16.9348895 C16.1203144,18.5383702 18.8088734,18.5361344 20.4601572,16.9348895 L26.4526812,11.1241604 C28.1062009,9.52088289 28.1062009,6.91440519 26.4526812,5.31234723 C24.8013275,3.71028927 22.1134672,3.71028927 20.4601572,5.31234723 L18.3292227,7.38094376 C16.5999651,6.72802011 14.7369083,6.55247532 12.9232489,6.81020299 L17.4641048,2.4070843 C20.7744978,-0.802384015 26.1402271,-0.802384015 29.4506201,2.4070843 C32.7594061,5.6164171 32.7594061,10.8203615 29.4506201,14.0296266 Z M13.6040524,23.5846564 L11.4715808,25.6532528 C9.81945852,27.2544978 7.13075983,27.2544978 5.47835808,25.6532528 C3.82609607,24.0497721 3.82609607,21.4432944 5.47835808,19.8404912 L11.4715808,14.0296266 C13.1250306,12.4264846 15.8119127,12.4264846 17.4640349,14.0296266 C17.9802271,14.530312 18.3167162,15.1341157 18.5110917,15.7712531 C18.6682271,15.6827016 18.8296943,15.6107493 18.9620262,15.4822242 L21.7470742,12.7826555 C21.3913013,12.1947058 20.9814498,11.6288432 20.4600175,11.1242959 C17.1518603,7.91482758 11.7842445,7.91482758 8.47448035,11.1242959 L2.48216594,16.9352282 C-0.827248908,20.1456451 -0.827248908,25.348099 2.48216594,28.5582448 C5.79193013,31.7666968 11.1582882,31.7666968 14.4679825,28.5582448 L19.0100262,24.1541776 C17.1953886,24.4133958 15.3318428,24.2363604 13.6040524,23.5846564 Z" id="Shape"></path>
            </g>
            <g id="unlink" transform="translate(64.000000, 0.000000)">
                <path d="M29.7733818,2.14447603 C26.8247273,-0.714825344 22.0264727,-0.71369697 19.0772364,2.14447603 L13.7291636,7.33048595 C13.2747636,7.77111626 13.2747636,8.48537741 13.7291636,8.92600771 C14.1835636,9.36663801 14.9201455,9.36663801 15.3745455,8.92600771 L20.7226182,3.7399978 C21.7064727,2.78652121 23.0213818,2.26069862 24.4247273,2.26069862 C25.8286545,2.26069862 27.1435636,2.78652121 28.1274182,3.74056199 C29.1112727,4.69460275 29.6535273,5.96966611 29.6535273,7.33105013 C29.6535273,8.69186997 29.1112727,9.96693333 28.1274182,10.9209741 L21.1345455,17.7036341 C19.0923636,19.6828033 15.7707636,19.6828033 13.7285818,17.7036341 C13.2741818,17.2630038 12.5376,17.2630038 12.0832,17.7036341 C11.6288,18.1442644 11.6288,18.8590898 12.0832,19.2991559 C13.5575273,20.7288066 15.4944,21.443632 17.4312727,21.443632 C19.3681455,21.443632 21.3050182,20.7288066 22.7793455,19.2991559 L29.7733818,12.5170601 C31.1970909,11.1370578 31.9813818,9.29498623 31.9813818,7.33105013 C31.9813818,5.36654987 31.1970909,3.52504242 29.7733818,2.14447603 Z" id="Shape"></path>
                <path d="M15.7858909,22.8890799 L11.2605091,27.277329 C10.2766545,28.2313697 8.96174545,28.7571922 7.55781818,28.7571922 C6.15447273,28.7571922 4.83898182,28.2313697 3.85512727,27.277329 C1.81352727,25.2975956 1.81352727,22.0760859 3.85512727,20.0963526 L10.4378182,13.7131372 C11.4216727,12.7596606 12.7365818,12.2338381 14.1405091,12.2338381 C15.5438545,12.2338381 16.8587636,12.7596606 17.8426182,13.7131372 C18.2970182,14.1537675 19.0336,14.1537675 19.488,13.7131372 C19.9424,13.2725069 19.9424,12.5582457 19.488,12.1176154 C16.5399273,9.25887824 11.7416727,9.25831405 8.79185455,12.1176154 L2.20916364,18.501395 C0.786036364,19.8813972 0.00174545455,21.7234689 0.00174545455,23.687405 C0.00174545455,25.6507768 0.786036364,27.4928485 2.20974545,28.8728507 C3.63287273,30.2534171 5.53250909,31.0139416 7.55723636,31.0139416 C9.58254545,31.0139416 11.4821818,30.2534171 12.9053091,28.8728507 L17.4306909,24.4846017 C17.8850909,24.0439714 17.8850909,23.3297102 17.4306909,22.8890799 C16.9762909,22.4484496 16.2402909,22.4484496 15.7858909,22.8890799 Z" id="Shape"></path>
            </g>
            <g id="related" transform="translate(128.000000, 0.000000)">
                <path d="M16.006,1.18981818 C19.183,1.18981818 21.768,3.9049697 21.768,7.24363636 C21.768,9.1849697 20.865,11.0254545 19.354,12.1629091 L18.979,12.4441212 L18.552,12.6671515 C17.7710647,13.0795675 16.8962366,13.2962303 16.007,13.2974545 C15.198,13.2974545 14.409,13.1190303 13.662,12.7689697 L13.223,12.5614545 L12.843,12.2986667 C11.217,11.1718788 10.245,9.28193939 10.245,7.24363636 C10.245,3.9049697 12.829,1.18981818 16.005,1.18981818 L16.006,1.18981818 Z M25.113,17.7328485 C28.29,17.7328485 30.875,20.448 30.875,23.7866667 C30.875,27.1253333 28.29,29.8404848 25.113,29.8404848 C22.15,29.8404848 19.631,27.4123636 19.377,24.310303 L19.337,23.8322424 L19.374,23.3260606 C19.508,21.4642424 20.43,19.7992727 21.904,18.7578182 L22.264,18.5047273 L22.722,18.2836364 C23.4643791,17.923287 24.282809,17.7347544 25.113,17.7328485 Z M6.898,17.7328485 C7.8047433,17.7339548 8.69632001,17.95852 9.489,18.3854545 L9.905,18.6065455 L10.285,18.8984242 C11.653,19.9476364 12.51,21.5612121 12.637,23.3260606 L12.674,23.8322424 L12.634,24.310303 C12.381,27.4123636 9.862,29.8404848 6.898,29.8404848 C3.721,29.8404848 1.137,27.1253333 1.137,23.7866667 C1.137,20.4489697 3.721,17.7328485 6.898,17.7328485 Z M16.006,0.0174545455 C12.208,0.0174545455 9.129,3.25236364 9.129,7.24363636 C9.129,9.76581818 10.362,11.9844848 12.226,13.2761212 L9.991,17.3401212 C9.04382996,16.8318446 7.97952865,16.563992 6.897,16.5614545 C3.1,16.5624242 0.02,19.7963636 0.02,23.7866667 C0.02,27.7779394 3.099,31.0128485 6.897,31.0128485 C10.495,31.0128485 13.443,28.1086061 13.745,24.4092121 L18.265,24.4092121 C18.567,28.1086061 21.515,31.0128485 25.113,31.0128485 C28.911,31.0128485 31.99,27.7779394 31.99,23.7866667 C31.99,19.7963636 28.911,16.5624242 25.113,16.5624242 C24.093,16.5624242 23.13,16.8009697 22.259,17.2189091 L20.003,13.1151515 C21.744,11.8031515 22.883,9.66593939 22.883,7.24363636 C22.883,3.25236364 19.803,0.0174545455 16.006,0.0174545455 Z M16.006,14.4688485 C17.0679909,14.4662493 18.1126553,14.2076656 19.046,13.7163636 L21.283,17.7861818 C19.581,18.9886061 18.426,20.9667879 18.262,23.2387879 L13.748,23.2387879 C13.592,21.0666667 12.524,19.1660606 10.942,17.9539394 L13.205,13.8395152 C14.0773603,14.2516046 15.0346367,14.4667637 16.005,14.4688485 L16.006,14.4688485 Z" id="Shape"></path>
            </g>
            <g id="related_bold" transform="translate(160.000000, 0.000000)">
                <path d="M16.0586563,2.92654545 C18.2428265,2.92654545 20.02,4.84450448 20.02,7.20290909 C20.02,8.57424979 19.3991924,9.874352 18.3603881,10.6778398 L18.1025776,10.8764856 L17.8090174,11.0340322 C17.2721287,11.3253592 16.6706891,11.478408 16.0593437,11.4792727 C15.5031606,11.4792727 14.9607274,11.3532354 14.447169,11.1059557 L14.1453588,10.9593688 L13.8841109,10.7737378 C12.7662447,9.97778482 12.098,8.64274832 12.098,7.20290909 C12.098,4.84450448 13.874486,2.92654545 16.0579688,2.92654545 L16.0586563,2.92654545 Z M25.2488062,19.5859394 C27.4301369,19.5859394 29.205,21.5038984 29.205,23.862303 C29.205,26.2207077 27.4301369,28.1386667 25.2488062,28.1386667 C23.214408,28.1386667 21.4848606,26.4234633 21.310464,24.2321951 L21.283,23.8944974 L21.3084042,23.536935 C21.4004087,22.2217631 22.0334547,21.0456432 23.0455042,20.309969 L23.2926805,20.1311878 L23.6071437,19.9750111 C24.1168618,19.7204635 24.6787964,19.5872857 25.2488062,19.5859394 Z M6.97585005,19.5859394 C7.59847468,19.586721 8.21068502,19.7453518 8.75498691,20.0469345 L9.0406376,20.2031112 L9.30156852,20.4092918 C10.2409198,21.150446 10.8293877,22.2902616 10.9165936,23.536935 L10.942,23.8944974 L10.9145336,24.2321951 C10.7408085,26.4234633 9.01111121,28.1386667 6.97585005,28.1386667 C4.79433024,28.1386667 3.02,26.2207077 3.02,23.862303 C3.02,21.5045834 4.79433024,19.5859394 6.97585005,19.5859394 Z M16.006,0.0174545455 C12.208,0.0174545455 9.129,3.25236364 9.129,7.24363636 C9.129,9.76581818 10.362,11.9844848 12.226,13.2761212 L9.991,17.3401212 C9.04382996,16.8318446 7.97952865,16.563992 6.897,16.5614545 C3.1,16.5624242 0.02,19.7963636 0.02,23.7866667 C0.02,27.7779394 3.099,31.0128485 6.897,31.0128485 C10.495,31.0128485 13.443,28.1086061 13.745,24.4092121 L18.265,24.4092121 C18.567,28.1086061 21.515,31.0128485 25.113,31.0128485 C28.911,31.0128485 31.99,27.7779394 31.99,23.7866667 C31.99,19.7963636 28.911,16.5624242 25.113,16.5624242 C24.093,16.5624242 23.13,16.8009697 22.259,17.2189091 L20.003,13.1151515 C21.744,11.8031515 22.883,9.66593939 22.883,7.24363636 C22.883,3.25236364 19.803,0.0174545455 16.006,0.0174545455 Z M16.006,14.4688485 C17.0679909,14.4662493 18.1126553,14.2076656 19.046,13.7163636 L21.283,17.7861818 C19.581,18.9886061 18.426,20.9667879 18.262,23.2387879 L13.748,23.2387879 C13.592,21.0666667 12.524,19.1660606 10.942,17.9539394 L13.205,13.8395152 C14.0773603,14.2516046 15.0346367,14.4667637 16.005,14.4688485 L16.006,14.4688485 Z" id="Shape"></path>
            </g>
            <g id="details" transform="translate(192.000000, 0.000000)">
                <path d="M17.28,10.24 C17.28,10.9255025 16.7069245,11.4812121 16,11.4812121 C15.2930755,11.4812121 14.72,10.9255025 14.72,10.24 C14.72,9.55449747 15.2930755,8.99878788 16,8.99878788 C16.7069245,8.99878788 17.28,9.55449747 17.28,10.24 Z M16.853,13.8598788 L16.853,13.0327273 L15.147,13.0327273 L15.147,21.7212121 L16.853,21.7212121 L16.853,13.8598788 Z" id="Shape"></path>
                <path d="M16,0 C7.147,0 0,6.93042424 0,15.5151515 C0,24.0998788 7.147,31.030303 16,31.030303 C24.853,31.030303 32,24.0998788 32,15.5151515 C32,6.93042424 24.853,0 16,0 Z M16,29.7890909 C7.893,29.7890909 1.28,23.3764848 1.28,15.5151515 C1.28,7.65381818 7.893,1.24121212 16,1.24121212 C24.107,1.24121212 30.72,7.65381818 30.72,15.5151515 C30.72,23.3764848 24.107,29.7890909 16,29.7890909 Z" id="Shape"></path>
            </g>
            <g id="details_bold" transform="translate(224.000000, 0.000000)">
                <path d="M18,9.75515152 C18,10.7084285 17.1045695,11.4812121 16,11.4812121 C14.8954305,11.4812121 14,10.7084285 14,9.75515152 C14,8.80187457 14.8954305,8.02909091 16,8.02909091 C17.1045695,8.02909091 18,8.80187457 18,9.75515152 Z M17.3328125,14.0334329 L17.3328125,13.0327273 L14.6671875,13.0327273 L14.6671875,23.5442424 L17.3328125,23.5442424 L17.3328125,14.0334329 Z" id="Shape"></path>
                <path d="M16,0 C7.147,0 0,6.93042424 0,15.5151515 C0,24.0998788 7.147,31.030303 16,31.030303 C24.853,31.030303 32,24.0998788 32,15.5151515 C32,6.93042424 24.853,0 16,0 Z M16,28.1212121 C8.84028533,28.1212121 3,22.4579052 3,15.5151515 C3,8.5723979 8.84028533,2.90909091 16,2.90909091 C23.1597147,2.90909091 29,8.5723979 29,15.5151515 C29,22.4579052 23.1597147,28.1212121 16,28.1212121 Z" id="Shape"></path>
            </g>
        </g>
    </g>
</svg>