<?xml version="1.0" encoding="UTF-8" standalone="no"?>
<svg width="128px" height="16px" viewBox="0 0 128 16" version="1.1" xmlns="http://www.w3.org/2000/svg" xmlns:xlink="http://www.w3.org/1999/xlink">
    <!-- Generator: Sketch 49.2 (51160) - http://www.bohemiancoding.com/sketch -->
    <title>icon_sprite</title>
    <desc>Created with Sketch.</desc>
    <defs></defs>
    <g id="Page-1" stroke="none" stroke-width="1" fill="none" fill-rule="evenodd">
        <g id="icon_sprite" fill="#000000" fill-rule="nonzero">
            <g id="figures">
                <path d="M9.785,4.645 C9.118,4.645 8.576,5.295 8.576,6.094 C8.576,6.893 9.1185,7.5435 9.785,7.5435 C10.451,7.5435 10.9935,6.8935 10.9935,6.0935 C10.994,5.2955 10.4515,4.645 9.785,4.645 Z M9.785,6.7335 C9.4905,6.7335 9.2515,6.447 9.2515,6.0935 C9.2515,5.7415 9.4905,5.455 9.785,5.455 C10.079,5.455 10.318,5.7415 10.318,6.094 C10.3185,6.447 10.079,6.734 9.785,6.734 L9.785,6.7335 Z" id="Shape"></path>
                <path d="M14.3685,0.003 L1.626,0.003 C0.7335,0.003 0.01,0.87 0.01,1.94 L0.01,14.06 C0.01,15.13 0.7335,15.997 1.626,15.997 L14.3685,15.997 C15.2635,15.997 15.9885,15.13 15.9885,14.06 L15.9885,1.94 C15.9885,0.87 15.2635,0.003 14.3685,0.003 Z M0.6805,10.918 L4.0345,6.898 C4.2695,6.616 4.6475,6.604 4.8945,6.8725 L9.2065,11.551 C9.7215,12.108 10.5075,12.084 10.998,11.497 L12.128,10.143 C12.351,9.8755 12.707,9.8495 12.955,10.084 L15.285,12.2875 L15.285,13.9245 C15.285,14.6235 14.8115,15.19 14.2265,15.19 L1.7385,15.19 C1.1535,15.19 0.68,14.6235 0.68,13.925 L0.68,10.9175 L0.6805,10.9175 L0.6805,10.918 Z M13.3745,9.449 C12.8575,8.959 12.116,9.0115 11.6505,9.57 L10.521,10.9245 C10.286,11.2065 9.9075,11.218 9.661,10.9505 L5.3485,6.272 C4.8345,5.7145 4.048,5.738 3.5575,6.3255 L0.681,9.773 L0.681,2.043 C0.681,1.344 1.155,0.777 1.74,0.777 L14.2275,0.777 C14.8125,0.777 15.2865,1.344 15.2865,2.0425 L15.2865,11.256 L13.3745,9.4485 L13.3745,9.449 Z" id="Shape"></path>
            </g>
            <g id="figures_bold" transform="translate(16.000000, 0.000000)">
                <path d="M10.07631,4.145 C9.24859555,4.145 8.576,4.90712696 8.576,5.84395685 C8.576,6.7807868 9.24921605,7.5435 10.07631,7.5435 C10.9027836,7.5435 11.5759996,6.78137305 11.5759996,5.8433706 C11.5766201,4.90771322 10.903404,4.145 10.07631,4.145 Z M10.1095,6.4235 C9.815,6.4235 9.576,6.137 9.576,5.7835 C9.576,5.4315 9.815,5.145 10.1095,5.145 C10.4035,5.145 10.6425,5.4315 10.6425,5.784 C10.643,6.137 10.4035,6.424 10.1095,6.424 L10.1095,6.4235 Z" id="Shape"></path>
                <path d="M14.3685,0.003 L1.626,0.003 C0.7335,0.003 0.01,0.87 0.01,1.94 L0.01,14.06 C0.01,15.13 0.7335,15.997 1.626,15.997 L14.3685,15.997 C15.2635,15.997 15.9885,15.13 15.9885,14.06 L15.9885,1.94 C15.9885,0.87 15.2635,0.003 14.3685,0.003 Z M1.26687715,10.9299855 L4.35301703,7.246499 C4.56924924,6.98810515 4.91706107,6.9771097 5.14433495,7.2231336 L9.11196615,11.5099973 C9.5858368,12.0203709 10.3090645,11.9983799 10.7603918,11.4605176 L11.8001467,10.2198607 C12.0053373,9.9747531 12.3329061,9.95092955 12.5611001,10.1657996 L14.7050196,12.184845 L14.7050196,13.6848121 C14.7050196,14.3252989 14.2693347,14.8443773 13.7310544,14.8443773 L2.24038221,14.8443773 C1.702102,14.8443773 1.26641708,14.3252989 1.26641708,13.6852702 L1.26641708,10.9295274 L1.26687715,10.9295274 L1.26687715,10.9299855 Z M12.9470976,8.58325475 C12.4713868,8.16601575 11.7891051,8.2107199 11.3607813,8.6862872 L10.3214864,9.83965505 C10.1052542,10.0797804 9.7569823,10.0895728 9.5301685,9.8617943 L5.5620772,5.87801325 C5.0891267,5.4032974 4.36543887,5.4233079 3.91411162,5.92356895 L1.26733721,8.8591434 L1.26733721,2.27698512 C1.26733721,1.6817809 1.70348221,1.19897576 2.24176242,1.19897576 L13.7319746,1.19897576 C14.2702549,1.19897576 14.7063999,1.6817809 14.7063999,2.27655937 L14.7063999,10.12193 L12.9470976,8.582829 L12.9470976,8.58325475 Z" id="Shape"></path>
            </g>
            <g id="unlink" transform="translate(32.000000, 0.000000)">
                <path d="M14.8866909,1.10574546 C13.4123636,-0.368581818 11.0132363,-0.368 9.5386182,1.10574546 L6.8645818,3.77978182 C6.6373818,4.00698182 6.6373818,4.37527273 6.8645818,4.60247273 C7.0917818,4.82967272 7.46007275,4.82967272 7.68727275,4.60247273 L10.3613091,1.92843637 C10.8532363,1.4368 11.5106909,1.16567273 12.2123637,1.16567273 C12.9143272,1.16567273 13.5717818,1.4368 14.0637091,1.92872727 C14.5556364,2.42065455 14.8267637,3.07810909 14.8267637,3.78007273 C14.8267637,4.48174546 14.5556364,5.1392 14.0637091,5.63112725 L10.5672728,9.12843635 C9.5461818,10.1489454 7.8853818,10.1489454 6.8642909,9.12843635 C6.6370909,8.90123635 6.2688,8.90123635 6.0416,9.12843635 C5.8144,9.35563635 5.8144,9.7242182 6.0416,9.95112725 C6.77876365,10.6882909 7.7472,11.0568728 8.71563635,11.0568728 C9.68407275,11.0568728 10.6525091,10.6882909 11.3896728,9.95112725 L14.8866909,6.4541091 C15.5985454,5.74254545 15.9906909,4.79272727 15.9906909,3.78007273 C15.9906909,2.76712728 15.5985454,1.8176 14.8866909,1.10574546 Z" id="Shape"></path>
                <path d="M7.89294545,11.8021818 L5.63025455,14.0648727 C5.13832725,14.5568 4.48087273,14.8279273 3.77890909,14.8279273 C3.07723637,14.8279273 2.41949091,14.5568 1.92756364,14.0648727 C0.906763635,13.0440728 0.906763635,11.3829818 1.92756364,10.3621818 L5.2189091,7.07083635 C5.71083635,6.5792 6.3682909,6.30807275 7.07025455,6.30807275 C7.77192725,6.30807275 8.4293818,6.5792 8.9213091,7.07083635 C9.1485091,7.29803635 9.5168,7.29803635 9.744,7.07083635 C9.9712,6.84363635 9.9712,6.47534545 9.744,6.24814545 C8.26996365,4.77410909 5.87083635,4.77381818 4.39592728,6.24814545 L1.10458182,9.5397818 C0.393018182,10.2513455 0.000872727275,11.2011636 0.000872727275,12.2138182 C0.000872727275,13.2261818 0.393018182,14.176 1.10487273,14.8875637 C1.81643637,15.5994182 2.76625455,15.9915636 3.77861818,15.9915636 C4.79127273,15.9915636 5.7410909,15.5994182 6.45265455,14.8875637 L8.71534545,12.6248727 C8.94254545,12.3976728 8.94254545,12.0293818 8.71534545,11.8021818 C8.48814545,11.5749818 8.12014545,11.5749818 7.89294545,11.8021818 Z" id="Shape"></path>
            </g>
            <g id="related" transform="translate(64.000000, 0.000000)">
                <path d="M8.003,0.6135 C9.5915,0.6135 10.884,2.0135 10.884,3.735 C10.884,4.736 10.4325,5.685 9.677,6.2715 L9.4895,6.4165 L9.276,6.5315 C8.88553235,6.744152 8.4481183,6.85586875 8.0035,6.8565 C7.599,6.8565 7.2045,6.7645 6.831,6.584 L6.6115,6.477 L6.4215,6.3415 C5.6085,5.7605 5.1225,4.786 5.1225,3.735 C5.1225,2.0135 6.4145,0.6135 8.0025,0.6135 L8.003,0.6135 Z M12.5565,9.1435 C14.145,9.1435 15.4375,10.5435 15.4375,12.265 C15.4375,13.9865 14.145,15.3865 12.5565,15.3865 C11.075,15.3865 9.8155,14.1345 9.6885,12.535 L9.6685,12.2885 L9.687,12.0275 C9.754,11.0675 10.215,10.209 10.952,9.672 L11.132,9.5415 L11.361,9.4275 C11.7321895,9.24169485 12.1414045,9.14448275 12.5565,9.1435 Z M3.449,9.1435 C3.90237165,9.14407045 4.34816001,9.2598619 4.7445,9.48 L4.9525,9.594 L5.1425,9.7445 C5.8265,10.2855 6.255,11.1175 6.3185,12.0275 L6.337,12.2885 L6.317,12.535 C6.1905,14.1345 4.931,15.3865 3.449,15.3865 C1.8605,15.3865 0.5685,13.9865 0.5685,12.265 C0.5685,10.544 1.8605,9.1435 3.449,9.1435 Z M8.003,0.009 C6.104,0.009 4.5645,1.677 4.5645,3.735 C4.5645,5.0355 5.181,6.1795 6.113,6.8455 L4.9955,8.941 C4.52191498,8.67891985 3.98976432,8.54080835 3.4485,8.5395 C1.55,8.54 0.01,10.2075 0.01,12.265 C0.01,14.323 1.5495,15.991 3.4485,15.991 C5.2475,15.991 6.7215,14.4935 6.8725,12.586 L9.1325,12.586 C9.2835,14.4935 10.7575,15.991 12.5565,15.991 C14.4555,15.991 15.995,14.323 15.995,12.265 C15.995,10.2075 14.4555,8.54 12.5565,8.54 C12.0465,8.54 11.565,8.663 11.1295,8.8785 L10.0015,6.7625 C10.872,6.086 11.4415,4.984 11.4415,3.735 C11.4415,1.677 9.9015,0.009 8.003,0.009 Z M8.003,7.4605 C8.53399545,7.4591598 9.05632765,7.3258276 9.523,7.0725 L10.6415,9.171 C9.7905,9.791 9.213,10.811 9.131,11.9825 L6.874,11.9825 C6.796,10.8625 6.262,9.8825 5.471,9.2575 L6.6025,7.136 C7.03868015,7.3484836 7.51731835,7.45942505 8.0025,7.4605 L8.003,7.4605 Z" id="Shape"></path>
            </g>
            <g id="related_bold" transform="translate(80.000000, 0.000000)">
                <path d="M8.02932815,1.509 C9.12141325,1.509 10.01,2.49794762 10.01,3.714 C10.01,4.42109755 9.6995962,5.09146275 9.18019405,5.50576115 L9.0512888,5.6081879 L8.9045087,5.68942285 C8.63606435,5.83963835 8.33534455,5.9185541 8.02967185,5.919 C7.7515803,5.919 7.4803637,5.854012 7.2235845,5.7265084 L7.0726794,5.65092455 L6.94205545,5.55520855 C6.38312235,5.1447953 6.049,4.4564171 6.049,3.714 C6.049,2.49794762 6.937243,1.509 8.0289844,1.509 L8.02932815,1.509 Z M12.6244031,10.099 C13.7150685,10.099 14.6025,11.0879476 14.6025,12.304 C14.6025,13.5200524 13.7150685,14.509 12.6244031,14.509 C11.607204,14.509 10.7424303,13.6245982 10.655232,12.4947256 L10.6415,12.3206002 L10.6542021,12.1362321 C10.7002043,11.4580966 11.0167274,10.8516598 11.5227521,10.4723277 L11.6463402,10.3801437 L11.8035719,10.2996151 C12.0584309,10.168364 12.3393982,10.0996942 12.6244031,10.099 Z M3.48792503,10.099 C3.79923734,10.099403 4.10534251,10.181197 4.37749345,10.3367006 L4.5203188,10.4172292 L4.65078426,10.5235411 C5.1204599,10.9056987 5.41469385,11.4934161 5.4582968,12.1362321 L5.471,12.3206002 L5.4572668,12.4947256 C5.37040425,13.6245982 4.5055556,14.509 3.48792503,14.509 C2.39716512,14.509 1.51,13.5200524 1.51,12.304 C1.51,11.0883008 2.39716512,10.099 3.48792503,10.099 Z M8.003,0.009 C6.104,0.009 4.5645,1.677 4.5645,3.735 C4.5645,5.0355 5.181,6.1795 6.113,6.8455 L4.9955,8.941 C4.52191498,8.67891985 3.98976432,8.54080835 3.4485,8.5395 C1.55,8.54 0.01,10.2075 0.01,12.265 C0.01,14.323 1.5495,15.991 3.4485,15.991 C5.2475,15.991 6.7215,14.4935 6.8725,12.586 L9.1325,12.586 C9.2835,14.4935 10.7575,15.991 12.5565,15.991 C14.4555,15.991 15.995,14.323 15.995,12.265 C15.995,10.2075 14.4555,8.54 12.5565,8.54 C12.0465,8.54 11.565,8.663 11.1295,8.8785 L10.0015,6.7625 C10.872,6.086 11.4415,4.984 11.4415,3.735 C11.4415,1.677 9.9015,0.009 8.003,0.009 Z M8.003,7.4605 C8.53399545,7.4591598 9.05632765,7.3258276 9.523,7.0725 L10.6415,9.171 C9.7905,9.791 9.213,10.811 9.131,11.9825 L6.874,11.9825 C6.796,10.8625 6.262,9.8825 5.471,9.2575 L6.6025,7.136 C7.03868015,7.3484836 7.51731835,7.45942505 8.0025,7.4605 L8.003,7.4605 Z" id="Shape"></path>
            </g>
            <g id="details" transform="translate(96.000000, 0.000000)">
                <path d="M8.64,5.28 C8.64,5.63346225 8.35346225,5.92 8,5.92 C7.64653775,5.92 7.36,5.63346225 7.36,5.28 C7.36,4.92653776 7.64653775,4.64 8,4.64 C8.35346225,4.64 8.64,4.92653776 8.64,5.28 Z M8.4265,7.1465 L8.4265,6.72 L7.5735,6.72 L7.5735,11.2 L8.4265,11.2 L8.4265,7.1465 Z" id="Shape"></path>
                <path d="M8,0 C3.5735,0 0,3.5735 0,8 C0,12.4265 3.5735,16 8,16 C12.4265,16 16,12.4265 16,8 C16,3.5735 12.4265,0 8,0 Z M8,15.36 C3.9465,15.36 0.64,12.0535 0.64,8 C0.64,3.9465 3.9465,0.64 8,0.64 C12.0535,0.64 15.36,3.9465 15.36,8 C15.36,12.0535 12.0535,15.36 8,15.36 Z" id="Shape"></path>
            </g>
            <g id="details_bold" transform="translate(112.000000, 0.000000)">
                <path d="M9,5.03 C9,5.52153345 8.55228475,5.92 8,5.92 C7.44771525,5.92 7,5.52153345 7,5.03 C7,4.53846658 7.44771525,4.14 8,4.14 C8.55228475,4.14 9,4.53846658 9,5.03 Z M8.66640625,7.23598885 L8.66640625,6.72 L7.33359375,6.72 L7.33359375,12.14 L8.66640625,12.14 L8.66640625,7.23598885 Z" id="Shape"></path>
                <path d="M8,0 C3.5735,0 0,3.5735 0,8 C0,12.4265 3.5735,16 8,16 C12.4265,16 16,12.4265 16,8 C16,3.5735 12.4265,0 8,0 Z M8,14.5 C4.42014267,14.5 1.5,11.5798573 1.5,8 C1.5,4.42014267 4.42014267,1.5 8,1.5 C11.5798573,1.5 14.5,4.42014267 14.5,8 C14.5,11.5798573 11.5798573,14.5 8,14.5 Z" id="Shape"></path>
            </g>
            <g id="link-symbol" transform="translate(48.000000, 0.000000)">
                <path d="M14.72531,7.2340262 L11.7281048,10.2302533 C10.0738864,11.8854498 7.39032315,11.8854498 5.73582535,10.2302533 C5.47521395,9.97037555 5.27133625,9.6775546 5.09229695,9.3755808 L6.48492575,7.98305675 C6.55112665,7.91629695 6.63287335,7.87804365 6.7109869,7.83297815 C6.8072664,8.1619214 6.97533625,8.4733275 7.2340262,8.7320524 C8.0601572,9.55884715 9.4044367,9.5576943 10.2300786,8.7320524 L13.2263406,5.7358952 C14.0531005,4.90920524 14.0531005,3.56524018 13.2263406,2.73917904 C12.4006637,1.91311791 11.0567336,1.91311791 10.2300786,2.73917904 L9.16461135,3.80579913 C8.29998255,3.46913537 7.36845415,3.37862009 6.46162445,3.51151092 L8.7320524,1.24115284 C10.3872489,-0.413729258 13.0701136,-0.413729258 14.72531,1.24115284 C16.379703,2.89596506 16.379703,5.5792489 14.72531,7.2340262 Z M6.8020262,12.1608384 L5.7357904,13.2274585 C4.90972926,14.0531005 3.56537992,14.0531005 2.73917904,13.2274585 C1.91304804,12.4006637 1.91304804,11.0566987 2.73917904,10.2302533 L5.7357904,7.2340262 C6.5625153,6.4074061 7.90595635,6.4074061 8.73201745,7.2340262 C8.99011355,7.49219215 9.1583581,7.8035284 9.25554585,8.1320524 C9.33411355,8.086393 9.41484715,8.0492926 9.4810131,7.98302185 L10.8735371,6.59105675 C10.6956507,6.2878952 10.4907249,5.99612225 10.2300088,5.73596505 C8.57593015,4.08108297 5.89212225,4.08108297 4.23724018,5.73596505 L1.24108297,8.73222705 C-0.413624454,10.3875983 -0.413624454,13.0701136 1.24108297,14.725345 C2.89596507,16.3797031 5.5791441,16.3797031 7.23399125,14.725345 L9.5050131,12.4544978 C8.5976943,12.5881572 7.6659214,12.4968733 6.8020262,12.1608384 Z" id="Shape"></path>
            </g>
        </g>
    </g>
</svg>