<?xml version="1.0" encoding="UTF-8" standalone="no"?>
<svg width="256px" height="32px" viewBox="0 0 256 32" version="1.1" xmlns="http://www.w3.org/2000/svg" xmlns:xlink="http://www.w3.org/1999/xlink">
    <!-- Generator: Sketch 49.2 (51160) - http://www.bohemiancoding.com/sketch -->
    <title>Group</title>
    <desc>Created with Sketch.</desc>
    <defs></defs>
    <g id="Page-1" stroke="none" stroke-width="1" fill="none" fill-rule="evenodd">
        <g id="Group" fill="#000000" fill-rule="nonzero">
            <g id="figures">
                <path d="M19.57,9.29 C18.236,9.29 17.152,10.59 17.152,12.188 C17.152,13.786 18.237,15.087 19.57,15.087 C20.902,15.087 21.987,13.787 21.987,12.187 C21.988,10.591 20.903,9.29 19.57,9.29 Z M19.57,13.467 C18.981,13.467 18.503,12.894 18.503,12.187 C18.503,11.483 18.981,10.91 19.57,10.91 C20.158,10.91 20.636,11.483 20.636,12.188 C20.637,12.894 20.158,13.468 19.57,13.468 L19.57,13.467 Z" id="Shape"></path>
                <path d="M28.737,0.006 L3.252,0.006 C1.467,0.006 0.02,1.74 0.02,3.88 L0.02,28.12 C0.02,30.26 1.467,31.994 3.252,31.994 L28.737,31.994 C30.527,31.994 31.977,30.26 31.977,28.12 L31.977,3.88 C31.977,1.74 30.527,0.006 28.737,0.006 Z M1.361,21.836 L8.069,13.796 C8.539,13.232 9.295,13.208 9.789,13.745 L18.413,23.102 C19.443,24.216 21.015,24.168 21.996,22.994 L24.256,20.286 C24.702,19.751 25.414,19.699 25.91,20.168 L30.57,24.575 L30.57,27.849 C30.57,29.247 29.623,30.38 28.453,30.38 L3.477,30.38 C2.307,30.38 1.36,29.247 1.36,27.85 L1.36,21.835 L1.361,21.835 L1.361,21.836 Z M26.749,18.898 C25.715,17.918 24.232,18.023 23.301,19.14 L21.042,21.849 C20.572,22.413 19.815,22.436 19.322,21.901 L10.697,12.544 C9.669,11.429 8.096,11.476 7.115,12.651 L1.362,19.546 L1.362,4.086 C1.362,2.688 2.31,1.554 3.48,1.554 L28.455,1.554 C29.625,1.554 30.573,2.688 30.573,4.085 L30.573,22.512 L26.749,18.897 L26.749,18.898 Z" id="Shape"></path>
            </g>
            <g id="figures_bold" transform="translate(32.000000, 0.000000)">
                <path d="M20.15262,8.29 C18.4971911,8.29 17.152,9.81425392 17.152,11.6879137 C17.152,13.5615736 18.4984321,15.087 20.15262,15.087 C21.8055671,15.087 23.1519991,13.5627461 23.1519991,11.6867412 C23.1532401,9.81542643 21.806808,8.29 20.15262,8.29 Z M20.219,12.847 C19.63,12.847 19.152,12.274 19.152,11.567 C19.152,10.863 19.63,10.29 20.219,10.29 C20.807,10.29 21.285,10.863 21.285,11.568 C21.286,12.274 20.807,12.848 20.219,12.848 L20.219,12.847 Z" id="Shape"></path>
                <path d="M28.737,0.006 L3.252,0.006 C1.467,0.006 0.02,1.74 0.02,3.88 L0.02,28.12 C0.02,30.26 1.467,31.994 3.252,31.994 L28.737,31.994 C30.527,31.994 31.977,30.26 31.977,28.12 L31.977,3.88 C31.977,1.74 30.527,0.006 28.737,0.006 Z M2.53375431,21.8599711 L8.70603406,14.492998 C9.13849849,13.9762103 9.83412214,13.9542194 10.2886699,14.4462672 L18.2239323,23.0199946 C19.1716736,24.0407418 20.6181291,23.9967599 21.5207836,22.9210352 L23.6002934,20.4397214 C24.0106747,19.9495062 24.6658123,19.9018591 25.1222002,20.3315992 L29.4100392,24.36969 L29.4100392,27.3696242 C29.4100392,28.6505979 28.5386694,29.6887546 27.4621089,29.6887546 L4.48076443,29.6887546 C3.40420401,29.6887546 2.53283417,28.6505979 2.53283417,27.3705405 L2.53283417,21.8590549 L2.53375431,21.8590549 L2.53375431,21.8599711 Z M25.8941953,17.1665095 C24.9427736,16.3320315 23.5782102,16.4214398 22.7215626,17.3725744 L20.6429728,19.6793101 C20.2105083,20.1595608 19.5139646,20.1791455 19.060337,19.7235886 L11.1241544,11.7560265 C10.1782534,10.8065948 8.73087775,10.8466158 7.82822324,11.8471379 L2.53467443,17.7182868 L2.53467443,4.55397025 C2.53467443,3.3635618 3.40696442,2.39795152 4.48352484,2.39795152 L27.4639493,2.39795152 C28.5405097,2.39795152 29.4127997,3.3635618 29.4127997,4.55311874 L29.4127997,20.2438601 L25.8941953,17.165658 L25.8941953,17.1665095 Z" id="Shape"></path>
            </g>
            <g id="unlink" transform="translate(64.000000, 0.000000)">
                <path d="M29.7733818,2.21149091 C26.8247273,-0.737163636 22.0264727,-0.736 19.0772364,2.21149091 L13.7291636,7.55956364 C13.2747636,8.01396364 13.2747636,8.75054545 13.7291636,9.20494545 C14.1835636,9.65934545 14.9201455,9.65934545 15.3745455,9.20494545 L20.7226182,3.85687273 C21.7064727,2.8736 23.0213818,2.33134545 24.4247273,2.33134545 C25.8286545,2.33134545 27.1435636,2.8736 28.1274182,3.85745455 C29.1112727,4.84130909 29.6535273,6.15621818 29.6535273,7.56014545 C29.6535273,8.96349091 29.1112727,10.2784 28.1274182,11.2622545 L21.1345455,18.2568727 C19.0923636,20.2978909 15.7707636,20.2978909 13.7285818,18.2568727 C13.2741818,17.8024727 12.5376,17.8024727 12.0832,18.2568727 C11.6288,18.7112727 11.6288,19.4484364 12.0832,19.9022545 C13.5575273,21.3765818 15.4944,22.1137455 17.4312727,22.1137455 C19.3681455,22.1137455 21.3050182,21.3765818 22.7793455,19.9022545 L29.7733818,12.9082182 C31.1970909,11.4850909 31.9813818,9.58545455 31.9813818,7.56014545 C31.9813818,5.53425455 31.1970909,3.6352 29.7733818,2.21149091 Z" id="Shape"></path>
                <path d="M15.7858909,23.6043636 L11.2605091,28.1297455 C10.2766545,29.1136 8.96174545,29.6558545 7.55781818,29.6558545 C6.15447273,29.6558545 4.83898182,29.1136 3.85512727,28.1297455 C1.81352727,26.0881455 1.81352727,22.7659636 3.85512727,20.7243636 L10.4378182,14.1416727 C11.4216727,13.1584 12.7365818,12.6161455 14.1405091,12.6161455 C15.5438545,12.6161455 16.8587636,13.1584 17.8426182,14.1416727 C18.2970182,14.5960727 19.0336,14.5960727 19.488,14.1416727 C19.9424,13.6872727 19.9424,12.9506909 19.488,12.4962909 C16.5399273,9.54821818 11.7416727,9.54763636 8.79185455,12.4962909 L2.20916364,19.0795636 C0.786036364,20.5026909 0.00174545455,22.4023273 0.00174545455,24.4276364 C0.00174545455,26.4523636 0.786036364,28.352 2.20974545,29.7751273 C3.63287273,31.1988364 5.53250909,31.9831273 7.55723636,31.9831273 C9.58254545,31.9831273 11.4821818,31.1988364 12.9053091,29.7751273 L17.4306909,25.2497455 C17.8850909,24.7953455 17.8850909,24.0587636 17.4306909,23.6043636 C16.9762909,23.1499636 16.2402909,23.1499636 15.7858909,23.6043636 Z" id="Shape"></path>
            </g>
            <g id="related" transform="translate(128.000000, 0.000000)">
                <path d="M16.006,1.227 C19.183,1.227 21.768,4.027 21.768,7.47 C21.768,9.472 20.865,11.37 19.354,12.543 L18.979,12.833 L18.552,13.063 C17.7710647,13.488304 16.8962366,13.7117375 16.007,13.713 C15.198,13.713 14.409,13.529 13.662,13.168 L13.223,12.954 L12.843,12.683 C11.217,11.521 10.245,9.572 10.245,7.47 C10.245,4.027 12.829,1.227 16.005,1.227 L16.006,1.227 Z M25.113,18.287 C28.29,18.287 30.875,21.087 30.875,24.53 C30.875,27.973 28.29,30.773 25.113,30.773 C22.15,30.773 19.631,28.269 19.377,25.07 L19.337,24.577 L19.374,24.055 C19.508,22.135 20.43,20.418 21.904,19.344 L22.264,19.083 L22.722,18.855 C23.4643791,18.4833897 24.282809,18.2889655 25.113,18.287 Z M6.898,18.287 C7.8047433,18.2881409 8.69632001,18.5197238 9.489,18.96 L9.905,19.188 L10.285,19.489 C11.653,20.571 12.51,22.235 12.637,24.055 L12.674,24.577 L12.634,25.07 C12.381,28.269 9.862,30.773 6.898,30.773 C3.721,30.773 1.137,27.973 1.137,24.53 C1.137,21.088 3.721,18.287 6.898,18.287 Z M16.006,0.018 C12.208,0.018 9.129,3.354 9.129,7.47 C9.129,10.071 10.362,12.359 12.226,13.691 L9.991,17.882 C9.04382996,17.3578397 7.97952865,17.0816167 6.897,17.079 C3.1,17.08 0.02,20.415 0.02,24.53 C0.02,28.646 3.099,31.982 6.897,31.982 C10.495,31.982 13.443,28.987 13.745,25.172 L18.265,25.172 C18.567,28.987 21.515,31.982 25.113,31.982 C28.911,31.982 31.99,28.646 31.99,24.53 C31.99,20.415 28.911,17.08 25.113,17.08 C24.093,17.08 23.13,17.326 22.259,17.757 L20.003,13.525 C21.744,12.172 22.883,9.968 22.883,7.47 C22.883,3.354 19.803,0.018 16.006,0.018 Z M16.006,14.921 C17.0679909,14.9183196 18.1126553,14.6516552 19.046,14.145 L21.283,18.342 C19.581,19.582 18.426,21.622 18.262,23.965 L13.748,23.965 C13.592,21.725 12.524,19.765 10.942,18.515 L13.205,14.272 C14.0773603,14.6969672 15.0346367,14.9188501 16.005,14.921 L16.006,14.921 Z" id="Shape"></path>
            </g>
            <g id="related_bold" transform="translate(160.000000, 0.000000)">
                <path d="M16.0586563,3.018 C18.2428265,3.018 20.02,4.99589524 20.02,7.428 C20.02,8.8421951 19.3991924,10.1829255 18.3603881,11.0115223 L18.1025776,11.2163758 L17.8090174,11.3788457 C17.2721287,11.6792767 16.6706891,11.8371082 16.0593437,11.838 C15.5031606,11.838 14.9607274,11.708024 14.447169,11.4530168 L14.1453588,11.3018491 L13.8841109,11.1104171 C12.7662447,10.2895906 12.098,8.91283421 12.098,7.428 C12.098,4.99589524 13.874486,3.018 16.0579688,3.018 L16.0586563,3.018 Z M25.2488062,20.198 C27.4301369,20.198 29.205,22.1758952 29.205,24.608 C29.205,27.0401048 27.4301369,29.018 25.2488062,29.018 C23.214408,29.018 21.4848606,27.2491965 21.310464,24.9894512 L21.283,24.6412004 L21.3084042,24.2724642 C21.4004087,22.9161932 22.0334547,21.7033196 23.0455042,20.9446555 L23.2926805,20.7602874 L23.6071437,20.5992302 C24.1168618,20.336728 24.6787964,20.1993884 25.2488062,20.198 Z M6.97585005,20.198 C7.59847468,20.198806 8.21068502,20.362394 8.75498691,20.6734012 L9.0406376,20.8344584 L9.30156852,21.0470822 C10.2409198,21.8113974 10.8293877,22.9868323 10.9165936,24.2724642 L10.942,24.6412004 L10.9145336,24.9894512 C10.7408085,27.2491965 9.01111121,29.018 6.97585005,29.018 C4.79433024,29.018 3.02,27.0401048 3.02,24.608 C3.02,22.1766016 4.79433024,20.198 6.97585005,20.198 Z M16.006,0.018 C12.208,0.018 9.129,3.354 9.129,7.47 C9.129,10.071 10.362,12.359 12.226,13.691 L9.991,17.882 C9.04382996,17.3578397 7.97952865,17.0816167 6.897,17.079 C3.1,17.08 0.02,20.415 0.02,24.53 C0.02,28.646 3.099,31.982 6.897,31.982 C10.495,31.982 13.443,28.987 13.745,25.172 L18.265,25.172 C18.567,28.987 21.515,31.982 25.113,31.982 C28.911,31.982 31.99,28.646 31.99,24.53 C31.99,20.415 28.911,17.08 25.113,17.08 C24.093,17.08 23.13,17.326 22.259,17.757 L20.003,13.525 C21.744,12.172 22.883,9.968 22.883,7.47 C22.883,3.354 19.803,0.018 16.006,0.018 Z M16.006,14.921 C17.0679909,14.9183196 18.1126553,14.6516552 19.046,14.145 L21.283,18.342 C19.581,19.582 18.426,21.622 18.262,23.965 L13.748,23.965 C13.592,21.725 12.524,19.765 10.942,18.515 L13.205,14.272 C14.0773603,14.6969672 15.0346367,14.9188501 16.005,14.921 L16.006,14.921 Z" id="Shape"></path>
            </g>
            <g id="details" transform="translate(192.000000, 0.000000)">
                <path d="M17.28,10.56 C17.28,11.2669245 16.7069245,11.84 16,11.84 C15.2930755,11.84 14.72,11.2669245 14.72,10.56 C14.72,9.85307552 15.2930755,9.28 16,9.28 C16.7069245,9.28 17.28,9.85307552 17.28,10.56 Z M16.853,14.293 L16.853,13.44 L15.147,13.44 L15.147,22.4 L16.853,22.4 L16.853,14.293 Z" id="Shape"></path>
                <path d="M16,0 C7.147,0 0,7.147 0,16 C0,24.853 7.147,32 16,32 C24.853,32 32,24.853 32,16 C32,7.147 24.853,0 16,0 Z M16,30.72 C7.893,30.72 1.28,24.107 1.28,16 C1.28,7.893 7.893,1.28 16,1.28 C24.107,1.28 30.72,7.893 30.72,16 C30.72,24.107 24.107,30.72 16,30.72 Z" id="Shape"></path>
            </g>
            <g id="details_bold" transform="translate(224.000000, 0.000000)">
                <path d="M18,10.06 C18,11.0430669 17.1045695,11.84 16,11.84 C14.8954305,11.84 14,11.0430669 14,10.06 C14,9.07693315 14.8954305,8.28 16,8.28 C17.1045695,8.28 18,9.07693315 18,10.06 Z M17.3328125,14.4719777 L17.3328125,13.44 L14.6671875,13.44 L14.6671875,24.28 L17.3328125,24.28 L17.3328125,14.4719777 Z" id="Shape"></path>
                <path d="M16,0 C7.147,0 0,7.147 0,16 C0,24.853 7.147,32 16,32 C24.853,32 32,24.853 32,16 C32,7.147 24.853,0 16,0 Z M16,29 C8.84028533,29 3,23.1597147 3,16 C3,8.84028533 8.84028533,3 16,3 C23.1597147,3 29,8.84028533 29,16 C29,23.1597147 23.1597147,29 16,29 Z" id="Shape"></path>
            </g>
            <g id="link-symbol" transform="translate(96.000000, 0.000000)">
                <path d="M29.4506201,14.4680524 L23.4562096,20.4605066 C20.1477729,23.7708996 14.7806463,23.7708996 11.4716507,20.4605066 C10.9504279,19.9407511 10.5426725,19.3551092 10.1845939,18.7511616 L12.9698515,15.9661135 C13.1022533,15.8325939 13.2657467,15.7560873 13.4219738,15.6659563 C13.6145328,16.3238428 13.9506725,16.946655 14.4680524,17.4641048 C16.1203144,19.1176943 18.8088734,19.1153886 20.4601572,17.4641048 L26.4526812,11.4717904 C28.1062009,9.81841048 28.1062009,7.13048035 26.4526812,5.47835808 C24.8013275,3.82623581 22.1134672,3.82623581 20.4601572,5.47835808 L18.3292227,7.61159825 C16.5999651,6.93827074 14.7369083,6.75724017 12.9232489,7.02302183 L17.4641048,2.48230568 C20.7744978,-0.827458515 26.1402271,-0.827458515 29.4506201,2.48230568 C32.7594061,5.79193013 32.7594061,11.1584978 29.4506201,14.4680524 Z M13.6040524,24.3216769 L11.4715808,26.454917 C9.81945852,28.1062009 7.13075983,28.1062009 5.47835808,26.454917 C3.82609607,24.8013275 3.82609607,22.1133974 5.47835808,20.4605066 L11.4715808,14.4680524 C13.1250306,12.8148122 15.8119127,12.8148122 17.4640349,14.4680524 C17.9802271,14.9843843 18.3167162,15.6070568 18.5110917,16.2641048 C18.6682271,16.172786 18.8296943,16.0985852 18.9620262,15.9660437 L21.7470742,13.1821135 C21.3913013,12.5757904 20.9814498,11.9922445 20.4600175,11.4719301 C17.1518603,8.16216594 11.7842445,8.16216594 8.47448035,11.4719301 L2.48216594,17.4644541 C-0.827248908,20.7751965 -0.827248908,26.1402271 2.48216594,29.45069 C5.79193013,32.7594061 11.1582882,32.7594061 14.4679825,29.45069 L19.0100262,24.9089956 C17.1953886,25.1763144 15.3318428,24.9937467 13.6040524,24.3216769 Z" id="Shape"></path>
            </g>
        </g>
    </g>
</svg>