<svg width="32" height="32" xmlns="http://www.w3.org/2000/svg">
  <g fill="#000" fill-rule="nonzero">
    <path d="M17.841 21.75a6.064 6.064 0 0 1-4.304-1.78l.903-.904a4.817 4.817 0 0 0 6.804 0l8.048-8.049a4.818 4.818 0 0 0 0-6.804l-1.498-1.498a4.818 4.818 0 0 0-6.804 0l-5.68 5.68-.903-.904 5.68-5.68a6.095 6.095 0 0 1 8.61 0l1.499 1.499a6.095 6.095 0 0 1 0 8.61l-8.048 8.048a6.069 6.069 0 0 1-4.307 1.781z"/>
    <path d="M7.615 31.978a6.05 6.05 0 0 1-4.305-1.783L1.81 28.696a6.095 6.095 0 0 1 0-8.61l8.049-8.049a6.096 6.096 0 0 1 8.61 0l1.5 1.498-.904.904-1.499-1.498a4.818 4.818 0 0 0-6.804 0L2.715 20.99a4.818 4.818 0 0 0 0 6.804l1.498 1.498a4.78 4.78 0 0 0 3.402 1.409 4.78 4.78 0 0 0 3.402-1.409l5.356-5.356.904.904-5.356 5.356a6.05 6.05 0 0 1-4.306 1.782z"/>
  </g>
</svg>
