<?xml version="1.0" encoding="UTF-8" standalone="no"?>
<svg width="34px" height="34px" viewBox="0 0 34 34" version="1.1" xmlns="http://www.w3.org/2000/svg" xmlns:xlink="http://www.w3.org/1999/xlink">
    <!-- Generator: Sketch 49.2 (51160) - http://www.bohemiancoding.com/sketch -->
    <title>references_bold</title>
    <desc>Created with Sketch.</desc>
    <defs></defs>
    <g id="Page-1" stroke="none" stroke-width="1" fill="none" fill-rule="evenodd">
        <g id="references_bold" transform="translate(1.000000, 1.000000)" fill="#000000" fill-rule="nonzero" stroke="#000000" stroke-width="1.5">
            <path d="M17.841,21.75 C16.2265878,21.7532481 14.6775238,21.1126036 13.537,19.97 L14.44,19.066 C16.320206,20.941651 19.363794,20.941651 21.244,19.066 L29.292,11.017 C31.1671012,9.13656665 31.1671012,6.09343335 29.292,4.213 L27.794,2.715 C25.9135666,0.839898768 22.8704334,0.839898768 20.99,2.715 L15.31,8.395 L14.407,7.491 L20.087,1.811 C22.4661397,-0.562831617 26.3178603,-0.562831617 28.697,1.811 L30.196,3.31 C32.5698316,5.68913967 32.5698316,9.54086033 30.196,11.92 L22.148,19.968 C21.0065932,21.1112391 19.456486,21.7522285 17.841,21.749 L17.841,21.75 Z" id="Shape"></path>
            <path d="M7.615,31.978 C5.99950135,31.9822764 4.44939218,31.3402684 3.31,30.195 L1.81,28.696 C-0.563831617,26.3168603 -0.563831617,22.4651397 1.81,20.086 L9.859,12.037 C12.2383671,9.66371841 16.0896329,9.66371841 18.469,12.037 L19.969,13.535 L19.065,14.439 L17.566,12.941 C15.6855666,11.0658988 12.6424334,11.0658988 10.762,12.941 L2.715,20.99 C0.839898768,22.8704334 0.839898768,25.9135666 2.715,27.794 L4.213,29.292 C5.1133368,30.1971317 6.33834126,30.7044895 7.615,30.701 C8.89165874,30.7044895 10.1166632,30.1971317 11.017,29.292 L16.373,23.936 L17.277,24.84 L11.921,30.196 C10.7811988,31.3411483 9.23070056,31.9828083 7.615,31.978 Z" id="Shape"></path>
        </g>
    </g>
</svg>