<svg width="32" height="32" xmlns="http://www.w3.org/2000/svg">
  <path d="M16.006 1.227c3.177 0 5.762 2.8 5.762 6.243 0 2.002-.903 3.9-2.414 5.073l-.375.29-.427.23a5.337 5.337 0 0 1-2.545.65c-.809 0-1.598-.184-2.345-.545l-.439-.214-.38-.271c-1.626-1.162-2.598-3.111-2.598-5.213 0-3.443 2.584-6.243 5.76-6.243zm9.107 17.06c3.177 0 5.762 2.8 5.762 6.243 0 3.443-2.585 6.243-5.762 6.243-2.963 0-5.482-2.504-5.736-5.703l-.04-.493.037-.522c.134-1.92 1.056-3.637 2.53-4.711l.36-.261.458-.228a5.37 5.37 0 0 1 2.391-.568zm-18.215 0a5.35 5.35 0 0 1 2.591.673l.416.228.38.301c1.368 1.082 2.225 2.746 2.352 4.566l.037.522-.04.493c-.253 3.199-2.772 5.703-5.736 5.703-3.177 0-5.761-2.8-5.761-6.243 0-3.442 2.584-6.243 5.761-6.243zM16.006.018c-3.798 0-6.877 3.336-6.877 7.452 0 2.601 1.233 4.889 3.097 6.221l-2.235 4.191a6.422 6.422 0 0 0-3.094-.803C3.1 17.08.02 20.415.02 24.53c0 4.116 3.079 7.452 6.877 7.452 3.598 0 6.546-2.995 6.848-6.81h4.52c.302 3.815 3.25 6.81 6.848 6.81 3.798 0 6.877-3.336 6.877-7.452 0-4.115-3.079-7.45-6.877-7.45-1.02 0-1.983.246-2.854.677l-2.256-4.232c1.741-1.353 2.88-3.557 2.88-6.055 0-4.116-3.08-7.452-6.877-7.452zm0 14.903a6.406 6.406 0 0 0 3.04-.776l2.237 4.197c-1.702 1.24-2.857 3.28-3.021 5.623h-4.514c-.156-2.24-1.224-4.2-2.806-5.45l2.263-4.243a6.426 6.426 0 0 0 2.8.649z" fill="#000" fill-rule="nonzero"/>
</svg>
