<?xml version="1.0" encoding="UTF-8" standalone="no"?>
<svg width="32px" height="32px" viewBox="0 0 32 32" version="1.1" xmlns="http://www.w3.org/2000/svg" xmlns:xlink="http://www.w3.org/1999/xlink">
    <!-- Generator: Sketch 49.2 (51160) - http://www.bohemiancoding.com/sketch -->
    <title>related</title>
    <desc>Created with Sketch.</desc>
    <defs></defs>
    <g id="Page-1" stroke="none" stroke-width="1" fill="none" fill-rule="evenodd">
        <g id="related" fill="#000000" fill-rule="nonzero">
            <path d="M16.0586563,3.018 C18.2428265,3.018 20.02,4.99589524 20.02,7.428 C20.02,8.8421951 19.3991924,10.1829255 18.3603881,11.0115223 L18.1025776,11.2163758 L17.8090174,11.3788457 C17.2721287,11.6792767 16.6706891,11.8371082 16.0593437,11.838 C15.5031606,11.838 14.9607274,11.708024 14.447169,11.4530168 L14.1453588,11.3018491 L13.8841109,11.1104171 C12.7662447,10.2895906 12.098,8.91283421 12.098,7.428 C12.098,4.99589524 13.874486,3.018 16.0579688,3.018 L16.0586563,3.018 Z M25.2488062,20.198 C27.4301369,20.198 29.205,22.1758952 29.205,24.608 C29.205,27.0401048 27.4301369,29.018 25.2488062,29.018 C23.214408,29.018 21.4848606,27.2491965 21.310464,24.9894512 L21.283,24.6412004 L21.3084042,24.2724642 C21.4004087,22.9161932 22.0334547,21.7033196 23.0455042,20.9446555 L23.2926805,20.7602874 L23.6071437,20.5992302 C24.1168618,20.336728 24.6787964,20.1993884 25.2488062,20.198 Z M6.97585005,20.198 C7.59847468,20.198806 8.21068502,20.362394 8.75498691,20.6734012 L9.0406376,20.8344584 L9.30156852,21.0470822 C10.2409198,21.8113974 10.8293877,22.9868323 10.9165936,24.2724642 L10.942,24.6412004 L10.9145336,24.9894512 C10.7408085,27.2491965 9.01111121,29.018 6.97585005,29.018 C4.79433024,29.018 3.02,27.0401048 3.02,24.608 C3.02,22.1766016 4.79433024,20.198 6.97585005,20.198 Z M16.006,0.018 C12.208,0.018 9.129,3.354 9.129,7.47 C9.129,10.071 10.362,12.359 12.226,13.691 L9.991,17.882 C9.04382996,17.3578397 7.97952865,17.0816167 6.897,17.079 C3.1,17.08 0.02,20.415 0.02,24.53 C0.02,28.646 3.099,31.982 6.897,31.982 C10.495,31.982 13.443,28.987 13.745,25.172 L18.265,25.172 C18.567,28.987 21.515,31.982 25.113,31.982 C28.911,31.982 31.99,28.646 31.99,24.53 C31.99,20.415 28.911,17.08 25.113,17.08 C24.093,17.08 23.13,17.326 22.259,17.757 L20.003,13.525 C21.744,12.172 22.883,9.968 22.883,7.47 C22.883,3.354 19.803,0.018 16.006,0.018 Z M16.006,14.921 C17.0679909,14.9183196 18.1126553,14.6516552 19.046,14.145 L21.283,18.342 C19.581,19.582 18.426,21.622 18.262,23.965 L13.748,23.965 C13.592,21.725 12.524,19.765 10.942,18.515 L13.205,14.272 C14.0773603,14.6969672 15.0346367,14.9188501 16.005,14.921 L16.006,14.921 Z" id="Shape"></path>
        </g>
    </g>
</svg>